<svg width="301" height="212" viewBox="0 0 301 212" fill="none" xmlns="http://www.w3.org/2000/svg">
<rect width="301" height="212" fill="#24126A"/>
<path d="M159.896 114.216C158.616 114.216 157.424 114.08 156.32 113.808C155.232 113.52 154.336 113.128 153.632 112.632C153.36 112.424 153.16 112.208 153.032 111.984C152.92 111.76 152.864 111.472 152.864 111.12C152.864 110.64 153.008 110.224 153.296 109.872C153.584 109.52 153.92 109.344 154.304 109.344C154.512 109.344 154.712 109.376 154.904 109.44C155.096 109.504 155.336 109.624 155.624 109.8C156.28 110.168 156.928 110.432 157.568 110.592C158.224 110.752 158.96 110.832 159.776 110.832C160.72 110.832 161.432 110.696 161.912 110.424C162.408 110.136 162.656 109.72 162.656 109.176C162.656 108.808 162.424 108.496 161.96 108.24C161.512 107.968 160.648 107.704 159.368 107.448C157.784 107.112 156.544 106.712 155.648 106.248C154.752 105.784 154.12 105.24 153.752 104.616C153.4 103.976 153.224 103.208 153.224 102.312C153.224 101.288 153.528 100.36 154.136 99.528C154.744 98.696 155.576 98.048 156.632 97.584C157.704 97.104 158.904 96.864 160.232 96.864C161.4 96.864 162.44 96.992 163.352 97.248C164.264 97.504 165.096 97.904 165.848 98.448C166.136 98.656 166.336 98.88 166.448 99.12C166.576 99.344 166.64 99.624 166.64 99.96C166.64 100.44 166.496 100.856 166.208 101.208C165.936 101.56 165.608 101.736 165.224 101.736C165.016 101.736 164.824 101.712 164.648 101.664C164.472 101.6 164.224 101.472 163.904 101.28C163.824 101.232 163.592 101.112 163.208 100.92C162.84 100.712 162.4 100.552 161.888 100.44C161.392 100.312 160.848 100.248 160.256 100.248C159.44 100.248 158.784 100.408 158.288 100.728C157.792 101.032 157.544 101.44 157.544 101.952C157.544 102.256 157.632 102.504 157.808 102.696C157.984 102.888 158.312 103.08 158.792 103.272C159.272 103.448 159.984 103.632 160.928 103.824C162.464 104.16 163.672 104.568 164.552 105.048C165.432 105.512 166.056 106.056 166.424 106.68C166.792 107.304 166.976 108.04 166.976 108.888C166.976 109.944 166.68 110.88 166.088 111.696C165.496 112.496 164.664 113.12 163.592 113.568C162.536 114 161.304 114.216 159.896 114.216ZM175.17 114.12C174.498 114.12 173.954 113.928 173.538 113.544C173.138 113.144 172.938 112.616 172.938 111.96V100.656H169.554C168.85 100.656 168.322 100.512 167.97 100.224C167.634 99.92 167.466 99.464 167.466 98.856C167.466 98.248 167.634 97.8 167.97 97.512C168.322 97.224 168.85 97.08 169.554 97.08H180.786C181.49 97.08 182.01 97.224 182.346 97.512C182.698 97.8 182.874 98.248 182.874 98.856C182.874 99.464 182.698 99.92 182.346 100.224C182.01 100.512 181.49 100.656 180.786 100.656H177.402V111.96C177.402 112.616 177.194 113.144 176.778 113.544C176.378 113.928 175.842 114.12 175.17 114.12ZM198.283 111.288C198.427 111.592 198.499 111.888 198.499 112.176C198.499 112.704 198.283 113.152 197.851 113.52C197.435 113.888 196.955 114.072 196.411 114.072C196.043 114.072 195.707 113.976 195.403 113.784C195.099 113.592 194.859 113.304 194.683 112.92L193.603 110.496H185.827L184.723 112.92C184.547 113.304 184.299 113.592 183.979 113.784C183.675 113.976 183.339 114.072 182.971 114.072C182.427 114.072 181.931 113.888 181.483 113.52C181.051 113.152 180.835 112.704 180.835 112.176C180.835 111.888 180.907 111.592 181.051 111.288L187.387 98.28C187.595 97.848 187.899 97.52 188.299 97.296C188.715 97.056 189.171 96.936 189.667 96.936C190.147 96.936 190.595 97.056 191.011 97.296C191.427 97.52 191.739 97.848 191.947 98.28L198.283 111.288ZM192.115 107.184L189.715 101.832L187.315 107.184H192.115ZM214.573 111.192C214.861 111.624 215.005 112.032 215.005 112.416C215.005 112.928 214.789 113.36 214.357 113.712C213.941 114.048 213.453 114.216 212.893 114.216C212.509 114.216 212.149 114.128 211.813 113.952C211.477 113.776 211.189 113.512 210.949 113.16L207.829 108.6C207.605 108.28 207.365 108.048 207.109 107.904C206.869 107.744 206.581 107.664 206.245 107.664H204.685V111.96C204.685 112.632 204.493 113.168 204.109 113.568C203.725 113.952 203.197 114.144 202.525 114.144C201.853 114.144 201.317 113.952 200.917 113.568C200.533 113.168 200.341 112.632 200.341 111.96V99.12C200.341 98.464 200.517 97.96 200.869 97.608C201.221 97.256 201.725 97.08 202.381 97.08H208.405C210.453 97.08 211.989 97.528 213.013 98.424C214.053 99.304 214.573 100.584 214.573 102.264C214.573 103.544 214.221 104.632 213.517 105.528C212.813 106.408 211.821 107 210.541 107.304C211.069 107.384 211.525 107.56 211.909 107.832C212.309 108.104 212.701 108.512 213.085 109.056L214.573 111.192ZM207.709 104.352C208.685 104.352 209.381 104.2 209.797 103.896C210.229 103.592 210.445 103.096 210.445 102.408C210.445 101.704 210.229 101.2 209.797 100.896C209.381 100.576 208.685 100.416 207.709 100.416H204.637V104.352H207.709ZM222.889 114.12C222.217 114.12 221.673 113.928 221.257 113.544C220.857 113.144 220.657 112.616 220.657 111.96V100.656H217.273C216.569 100.656 216.041 100.512 215.689 100.224C215.353 99.92 215.185 99.464 215.185 98.856C215.185 98.248 215.353 97.8 215.689 97.512C216.041 97.224 216.569 97.08 217.273 97.08H228.505C229.209 97.08 229.729 97.224 230.065 97.512C230.417 97.8 230.593 98.248 230.593 98.856C230.593 99.464 230.417 99.92 230.065 100.224C229.729 100.512 229.209 100.656 228.505 100.656H225.121V111.96C225.121 112.616 224.913 113.144 224.497 113.544C224.097 113.928 223.561 114.12 222.889 114.12Z" fill="white"/>
<rect x="73.1213" y="106" width="46.4975" height="46.4975" transform="rotate(-45 73.1213 106)" stroke="white" stroke-width="3"/>
<rect x="73.1213" y="106" width="32.3553" height="32.3553" transform="rotate(-45 73.1213 106)" stroke="white" stroke-width="3"/>
<rect x="73.1213" y="106" width="18.2132" height="18.2132" transform="rotate(-45 73.1213 106)" stroke="white" stroke-width="3"/>
</svg>
